<?xml version="1.0" encoding="utf-8"?>
<!-- Generator: Adobe Illustrator 22.1.0, SVG Export Plug-In . SVG Version: 6.00 Build 0)  -->
<svg version="1.1" id="Layer_1" xmlns="http://www.w3.org/2000/svg" xmlns:xlink="http://www.w3.org/1999/xlink" x="0px" y="0px"
	 viewBox="0 0 200 200" style="enable-background:new 0 0 200 200;" xml:space="preserve">
<style type="text/css">
	.st0{fill:#BD1E2D;}
	.st1{fill:#FFFFFF;}
	.st2{fill:none;}
	.st3{fill:#004458;}
</style>
<g id="XMLID_576_">
	<g id="XMLID_4646_">
		<g id="XMLID_4647_">
			<g id="XMLID_4652_">
				<circle id="XMLID_4653_" class="st0" cx="160.7" cy="100" r="21.8"/>
			</g>
			<g id="XMLID_4648_">
				<path id="XMLID_4651_" class="st1" d="M150.2,114l0.5-0.6c6.1-8,6-19.1-0.1-27l-0.1-0.1h2.7c5.8,8.3,5.7,19.4-0.2,27.7H150.2z"
					/>
				<path id="XMLID_4650_" class="st1" d="M157.3,121.9l0.6-0.8c10.4-12.2,10.4-30,0.1-42.2l-0.6-0.7h6.4c9.8,13,9.7,30.8-0.1,43.7
					H157.3z"/>
				<path id="XMLID_4649_" class="st1" d="M153.6,82.7l-0.2-0.2h4.4c7.5,10.4,7.4,24.7-0.2,35.1h-4.4l0.4-0.5
					C161.7,107.1,161.7,92.7,153.6,82.7z"/>
			</g>
		</g>
	</g>
	<g>
		<path class="st2" d="M59.2,100h4.2v-4.2l0,0c-0.1-2.2-1.9-4-4.1-4c-2.3,0-4.1,1.8-4.1,4.1C55.2,98.1,57,99.9,59.2,100L59.2,100z"
			/>
		<rect x="71.9" y="110.9" class="st3" width="5.5" height="5.5"/>
		<path class="st3" d="M109.3,100L109.3,100l0,4c0,4.5-2.5,6.9-7.6,6.9h-0.6v5.5h0.7c8,0,12.3-3.6,13-10.7l0-5.6v0h13.1v-5.5h-18.6
			V100z"/>
		<rect x="114.8" y="83.6" class="st3" width="13.1" height="5.5"/>
		<rect x="82.8" y="110.9" class="st3" width="13.1" height="5.5"/>
		<path class="st3" d="M90.7,105.4h13.3V100H93c-4.4,0-7.4-2.5-7.4-7.5v-0.8H80v0.7h0c0,5-2.2,7.6-6.7,7.6h-4.2l0-2.6v-1.5
			c0-5.3-4.3-9.6-9.6-9.6s-9.6,4.3-9.6,9.6c0,5.1,4.1,9.3,9.2,9.5l0,0h0.3c0,0,0.1,0,0.1,0s0.1,0,0.1,0h4c-0.5,3.6-3,5.4-7.5,5.4
			h-0.1h-6.2v5.5h6.2v0h0.2c0,0,0,0,0,0h0.1l0,0c7.8,0,12.1-3.5,12.7-10.6l0-0.3h2.7l3.2,0c3.5-0.3,6.1-1.5,7.9-3.6
			C84.6,103.9,87.2,105.1,90.7,105.4z M55.2,95.9c0-2.2,1.8-4.1,4.1-4.1c2.2,0,4,1.8,4.1,4l0,0v4.2h-4.2l0,0
			C57,99.9,55.2,98.1,55.2,95.9z"/>
		<rect x="39" y="83.7" class="st3" width="5.4" height="5.4"/>
		<path class="st3" d="M17.5,104c0,6.8,5.5,12.3,12.2,12.3h14.8v-5.4H29.7c-3.8,0-6.8-3.1-6.8-6.9s3.1-6.9,6.8-6.9h14.8v-5.4H29.7
			C23,91.7,17.5,97.2,17.5,104z"/>
	</g>
</g>
</svg>
