<?xml version="1.0" encoding="utf-8"?>
<!-- Generator: Adobe Illustrator 19.0.1, SVG Export Plug-In . SVG Version: 6.00 Build 0)  -->
<svg version="1.1" id="Layer_1" xmlns="http://www.w3.org/2000/svg" xmlns:xlink="http://www.w3.org/1999/xlink" x="0px" y="0px"
	 viewBox="0 0 65 65" style="enable-background:new 0 0 65 65;" xml:space="preserve">
<style type="text/css">
	.st0{fill-rule:evenodd;clip-rule:evenodd;fill:#939598;}
	.st1{fill-rule:evenodd;clip-rule:evenodd;fill:#FFCC00;}
	.st2{fill-rule:evenodd;clip-rule:evenodd;fill:none;stroke:#231F20;stroke-width:1.9337;stroke-miterlimit:2.6131;}
	.st3{fill-rule:evenodd;clip-rule:evenodd;fill:#231F20;}
	.st4{fill:#231F20;}
</style>
<g>
	<path class="st0" d="M20.5,18.2l5.7-2.3l5.7-2.3c-0.1-0.3-0.2-0.6-0.2-0.9c0-0.3,0-0.5,0.1-0.7L23,6.2c-0.4,0.3-0.9,0.6-1.4,0.6
		l-2.2,10.2C19.9,17.3,20.2,17.7,20.5,18.2z"/>
	<path class="st0" d="M12.8,32.5l2.3-5.7l2.3-5.7c-0.5-0.2-0.9-0.6-1.2-1.1L6.1,22.3c0,0.5-0.2,1-0.6,1.4l5.7,8.8
		c0.2-0.1,0.5-0.1,0.7-0.1C12.2,32.3,12.5,32.4,12.8,32.5z"/>
	<path class="st0" d="M17.5,48l-2.3-5.7l-2.3-5.7c-0.3,0.1-0.6,0.2-0.9,0.2c-0.3,0-0.5,0-0.7-0.1l-5.7,8.8c0.3,0.4,0.6,0.9,0.6,1.4
		l10.2,2.2C16.6,48.6,17,48.2,17.5,48z"/>
	<path class="st0" d="M31.8,55.7l-5.7-2.3L20.5,51c-0.2,0.5-0.6,0.9-1.1,1.2l2.2,10.2c0.5,0,1,0.2,1.4,0.6l8.8-5.7
		c-0.1-0.2-0.1-0.5-0.1-0.7C31.6,56.2,31.7,55.9,31.8,55.7z"/>
	<path class="st0" d="M47.3,51l-5.7,2.3L36,55.7c0.1,0.3,0.2,0.6,0.2,0.9c0,0.3,0,0.5-0.1,0.7l8.8,5.7c0.4-0.3,0.9-0.6,1.4-0.6
		l2.2-10.2C47.9,51.9,47.5,51.5,47.3,51z"/>
	<path class="st0" d="M55,36.4l-2.4,5.9L50.2,48c0.5,0.2,0.9,0.6,1.2,1.1l10.2-2.2c0-0.5,0.2-1,0.6-1.4l-5.9-9.1
		c-0.2,0.1-0.5,0.1-0.7,0.1C55.4,36.5,55.2,36.5,55,36.4z"/>
	<path class="st0" d="M50.2,21.2l2.3,5.7l2.2,5.3c0.3-0.1,0.6-0.2,0.9-0.2c0.3,0,0.5,0,0.8,0.1l5.8-8.5c-0.3-0.4-0.5-0.9-0.6-1.4
		l-10.2-2.2C51.2,20.6,50.7,21,50.2,21.2z"/>
	<path class="st0" d="M36,13.5l5.7,2.3l5.7,2.3c0.2-0.5,0.6-0.9,1.1-1.2L46.2,6.8c-0.5,0-1-0.2-1.4-0.6L36,11.9
		c0.1,0.2,0.1,0.5,0.1,0.7C36.1,13,36.1,13.3,36,13.5z"/>
	<path class="st1" d="M5.4,20.6l7.2-7.2l7.2-7.2c0.2,0.2,0.4,0.3,0.6,0.4l-2.2,10.2c-1.2,0.1-2.1,1-2.2,2.2L5.9,21.1
		C5.8,20.9,5.6,20.7,5.4,20.6z"/>
	<path class="st1" d="M3.8,44.8V34.6V24.4c0.3,0,0.5,0,0.7-0.1l5.7,8.8c-0.4,0.4-0.6,0.9-0.6,1.5c0,0.6,0.2,1.1,0.6,1.5l-5.7,8.8
		C4.3,44.8,4.1,44.8,3.8,44.8L3.8,44.8z"/>
	<path class="st1" d="M19.8,63l-7.2-7.2l-7.2-7.2c0.2-0.2,0.3-0.4,0.4-0.6l10.2,2.2c0.1,1.2,1,2.1,2.2,2.2l2.2,10.2
		C20.2,62.7,20,62.8,19.8,63z"/>
	<path class="st1" d="M44,64.6l-10.2,0l-10.2,0c0-0.3,0-0.5-0.1-0.7l8.8-5.7c0.4,0.4,0.9,0.6,1.5,0.6c0.6,0,1.1-0.2,1.5-0.6l8.8,5.7
		C44.1,64.1,44,64.4,44,64.6L44,64.6z"/>
	<path class="st1" d="M62.3,48.6l-7.2,7.2L47.9,63c-0.2-0.2-0.4-0.3-0.6-0.4l2.2-10.2c1.2-0.1,2.1-1,2.2-2.2L61.9,48
		C62,48.3,62.1,48.5,62.3,48.6z"/>
	<path class="st1" d="M63.9,24.4v10.2v10.2c-0.2,0-0.5,0-0.7,0.1l-5.9-9.1c0.4-0.4,0.6-0.9,0.6-1.5c0-0.6-0.2-1.1-0.6-1.5l5.8-8.5
		C63.4,24.4,63.6,24.4,63.9,24.4L63.9,24.4z"/>
	<path class="st1" d="M47.9,6.2l7.2,7.2l7.2,7.2c-0.2,0.2-0.3,0.4-0.4,0.6L51.6,19c-0.1-1.2-1-2.1-2.2-2.2L47.3,6.6
		C47.5,6.5,47.7,6.3,47.9,6.2z"/>
	<path class="st1" d="M23.7,4.6l10.2,0l10.2,0c0,0.3,0,0.5,0.1,0.7L35.4,11c-0.4-0.4-0.9-0.6-1.5-0.6c-0.6,0-1.1,0.2-1.5,0.6
		l-8.8-5.7C23.6,5.1,23.7,4.8,23.7,4.6L23.7,4.6z"/>
	<g>
		<g>
			<polygon class="st2" points="20.6,2.5 33,2.5 45.4,2.5 54.2,11.3 63,20.1 63,32.5 63,44.9 54.2,53.7 45.4,62.5 33,62.5 
				20.6,62.5 11.8,53.7 3,44.9 3,32.5 3,20.1 11.8,11.3 			"/>
			<polygon class="st2" points="33,10.6 40.8,13.8 48.5,17 51.7,24.7 54.9,32.5 51.7,40.3 48.5,48 40.8,51.2 33,54.4 25.2,51.2 
				17.5,48 14.3,40.3 11.1,32.5 14.3,24.7 17.5,17 25.2,13.8 			"/>
			<polygon class="st2" points="11.1,32.5 3,20.1 17.5,17 20.6,2.5 33,10.6 45.4,2.5 48.5,17 63,20.1 54.8,32.2 63,44.9 48.5,48 
				45.4,62.5 33,54.4 20.6,62.5 17.5,48 3,44.9 			"/>
		</g>
		<g>
			<path class="st3" d="M3,22.3c1.2,0,2.3-1,2.3-2.3s-1-2.3-2.3-2.3c-1.2,0-2.3,1-2.3,2.3S1.7,22.3,3,22.3z"/>
			<path class="st3" d="M11.1,34.8c1.2,0,2.3-1,2.3-2.3c0-1.2-1-2.3-2.3-2.3s-2.3,1-2.3,2.3C8.8,33.7,9.8,34.8,11.1,34.8z"/>
			<path class="st3" d="M3,47.2c1.2,0,2.3-1,2.3-2.3c0-1.2-1-2.3-2.3-2.3c-1.2,0-2.3,1-2.3,2.3C0.7,46.2,1.7,47.2,3,47.2z"/>
			<path class="st3" d="M17.5,50.3c1.2,0,2.3-1,2.3-2.3s-1-2.3-2.3-2.3s-2.3,1-2.3,2.3S16.2,50.3,17.5,50.3z"/>
			<path class="st3" d="M20.6,64.8c1.2,0,2.3-1,2.3-2.3c0-1.2-1-2.3-2.3-2.3c-1.2,0-2.3,1-2.3,2.3C18.3,63.8,19.3,64.8,20.6,64.8z"
				/>
			<path class="st3" d="M33,56.7c1.2,0,2.3-1,2.3-2.3s-1-2.3-2.3-2.3c-1.2,0-2.3,1-2.3,2.3S31.8,56.7,33,56.7z"/>
			<path class="st3" d="M45.4,64.8c1.2,0,2.3-1,2.3-2.3c0-1.2-1-2.3-2.3-2.3s-2.3,1-2.3,2.3C43.2,63.8,44.2,64.8,45.4,64.8z"/>
			<path class="st3" d="M48.5,50.3c1.2,0,2.3-1,2.3-2.3s-1-2.3-2.3-2.3c-1.2,0-2.3,1-2.3,2.3S47.3,50.3,48.5,50.3z"/>
			<path class="st3" d="M63,47.2c1.2,0,2.3-1,2.3-2.3c0-1.2-1-2.3-2.3-2.3s-2.3,1-2.3,2.3C60.8,46.2,61.8,47.2,63,47.2z"/>
			<path class="st3" d="M54.8,34.4c1.2,0,2.3-1,2.3-2.3c0-1.2-1-2.3-2.3-2.3s-2.3,1-2.3,2.3C52.5,33.4,53.5,34.4,54.8,34.4z"/>
			<path class="st3" d="M48.5,19.3c1.2,0,2.3-1,2.3-2.3c0-1.2-1-2.3-2.3-2.3c-1.2,0-2.3,1-2.3,2.3C46.2,18.2,47.3,19.3,48.5,19.3z"
				/>
			<path class="st3" d="M33,12.8c1.2,0,2.3-1,2.3-2.3c0-1.2-1-2.3-2.3-2.3c-1.2,0-2.3,1-2.3,2.3C30.7,11.8,31.8,12.8,33,12.8z"/>
			<path class="st3" d="M17.5,19.3c1.2,0,2.3-1,2.3-2.3c0-1.2-1-2.3-2.3-2.3s-2.3,1-2.3,2.3C15.2,18.2,16.2,19.3,17.5,19.3z"/>
			<path class="st3" d="M63,22.3c1.2,0,2.3-1,2.3-2.3c0-1.2-1-2.3-2.3-2.3s-2.3,1-2.3,2.3C60.8,21.3,61.8,22.3,63,22.3z"/>
			<path class="st3" d="M45.4,4.7c1.2,0,2.3-1,2.3-2.3c0-1.2-1-2.3-2.3-2.3s-2.3,1-2.3,2.3C43.2,3.7,44.2,4.7,45.4,4.7z"/>
			<path class="st3" d="M20.6,4.7c1.2,0,2.3-1,2.3-2.3s-1-2.3-2.3-2.3c-1.2,0-2.3,1-2.3,2.3S19.3,4.7,20.6,4.7z"/>
		</g>
	</g>
	<g>
		<path class="st4" d="M35.8,21.7v21.6h-4.4V28.5h-5v-2.8c1.5,0,2.6-0.2,3.4-0.4c0.8-0.3,1.4-0.7,1.8-1.3c0.4-0.6,0.7-1.3,0.7-2.2
			H35.8z"/>
	</g>
</g>
</svg>
