<?xml version="1.0" encoding="utf-8"?>
<!-- Generator: Adobe Illustrator 19.0.1, SVG Export Plug-In . SVG Version: 6.00 Build 0)  -->
<svg version="1.1" id="Layer_1" xmlns="http://www.w3.org/2000/svg" xmlns:xlink="http://www.w3.org/1999/xlink" x="0px" y="0px"
	 viewBox="0 0 230 85" style="enable-background:new 0 0 230 85;" xml:space="preserve">
<style type="text/css">
	.st0{fill-rule:evenodd;clip-rule:evenodd;fill:#939598;}
	.st1{fill-rule:evenodd;clip-rule:evenodd;fill:#FFCC00;}
	.st2{fill-rule:evenodd;clip-rule:evenodd;fill:none;stroke:#231F20;stroke-width:2.4982;stroke-miterlimit:2.6131;}
	.st3{fill-rule:evenodd;clip-rule:evenodd;fill:#231F20;}
	.st4{fill:#231F20;}
</style>
<g>
	<path class="st0" d="M172.1,24.1l7.3-3l7.3-3c-0.1-0.3-0.2-0.7-0.2-1.1c0-0.3,0.1-0.6,0.2-0.9l-11.3-7.4c-0.5,0.4-1.1,0.7-1.8,0.8
		l-2.8,13.2C171.3,22.9,171.8,23.4,172.1,24.1z"/>
	<path class="st0" d="M162.2,42.5l3-7.3l3-7.3c-0.7-0.3-1.2-0.8-1.5-1.4l-13.2,2.8c0,0.7-0.3,1.3-0.8,1.8l7.4,11.3
		c0.3-0.1,0.6-0.2,0.9-0.2C161.5,42.3,161.8,42.4,162.2,42.5z"/>
	<path class="st0" d="M168.3,62.5l-3-7.3l-3-7.3c-0.3,0.1-0.7,0.2-1.1,0.2c-0.3,0-0.6-0.1-0.9-0.2l-7.4,11.3
		c0.4,0.5,0.7,1.1,0.8,1.8l13.2,2.8C167.1,63.3,167.6,62.8,168.3,62.5z"/>
	<path class="st0" d="M186.7,72.4l-7.3-3l-7.3-3c-0.3,0.7-0.8,1.2-1.4,1.5l2.8,13.2c0.7,0,1.3,0.3,1.8,0.8l11.3-7.4
		c-0.1-0.3-0.2-0.6-0.2-0.9C186.5,73.1,186.6,72.8,186.7,72.4z"/>
	<path class="st0" d="M206.7,66.3l-7.3,3l-7.3,3c0.1,0.3,0.2,0.7,0.2,1.1c0,0.3-0.1,0.6-0.2,0.9l11.3,7.4c0.5-0.4,1.1-0.7,1.8-0.8
		l2.8-13.2C207.5,67.5,207,67,206.7,66.3z"/>
	<path class="st0" d="M216.7,47.6l-3.2,7.6l-3,7.3c0.7,0.3,1.2,0.8,1.5,1.4l13.2-2.8c0-0.7,0.3-1.4,0.8-1.8l-7.6-11.7
		c-0.3,0.1-0.6,0.1-0.9,0.1C217.3,47.7,217,47.7,216.7,47.6z"/>
	<path class="st0" d="M210.5,27.9l3,7.3l2.9,6.9c0.3-0.1,0.7-0.2,1.1-0.2c0.3,0,0.7,0.1,1,0.2l7.5-11c-0.4-0.5-0.7-1.1-0.7-1.8
		L212,26.5C211.7,27.1,211.2,27.6,210.5,27.9z"/>
	<path class="st0" d="M192.1,18l7.3,3l7.3,3c0.3-0.7,0.8-1.2,1.4-1.5l-2.8-13.2c-0.7,0-1.3-0.3-1.8-0.8l-11.3,7.4
		c0.1,0.3,0.2,0.6,0.2,0.9C192.3,17.3,192.2,17.6,192.1,18z"/>
	<path class="st1" d="M152.7,27.1l9.3-9.3l9.3-9.3c0.2,0.2,0.5,0.4,0.8,0.6l-2.8,13.2c-1.5,0.1-2.7,1.3-2.8,2.8l-13.2,2.8
		C153.1,27.5,152.9,27.3,152.7,27.1z"/>
	<path class="st1" d="M150.6,58.3V45.2V32.1c0.3,0,0.6-0.1,0.9-0.2l7.4,11.3c-0.5,0.5-0.8,1.2-0.8,2c0,0.8,0.3,1.5,0.8,2l-7.4,11.3
		C151.2,58.4,150.9,58.3,150.6,58.3L150.6,58.3z"/>
	<path class="st1" d="M171.3,81.9l-9.3-9.3l-9.3-9.3c0.2-0.2,0.4-0.5,0.6-0.8l13.2,2.8c0.1,1.5,1.3,2.7,2.8,2.8l2.8,13.2
		C171.7,81.5,171.5,81.7,171.3,81.9z"/>
	<path class="st1" d="M202.5,84l-13.1,0l-13.1,0c0-0.3-0.1-0.6-0.2-0.9l11.3-7.4c0.5,0.5,1.2,0.8,2,0.8c0.8,0,1.5-0.3,2-0.8
		l11.3,7.4C202.6,83.4,202.5,83.7,202.5,84L202.5,84z"/>
	<path class="st1" d="M226.1,63.3l-9.3,9.3l-9.3,9.3c-0.2-0.2-0.5-0.4-0.8-0.6l2.8-13.2c1.5-0.1,2.7-1.3,2.8-2.8l13.2-2.8
		C225.7,62.9,225.9,63.1,226.1,63.3z"/>
	<path class="st1" d="M228.2,32.1v13.1v13.1c-0.3,0-0.6,0.1-0.9,0.1l-7.6-11.7c0.5-0.5,0.8-1.2,0.8-2c0-0.7-0.3-1.4-0.7-1.9l7.5-11
		C227.5,32,227.9,32.1,228.2,32.1L228.2,32.1z"/>
	<path class="st1" d="M207.5,8.5l9.3,9.3l9.3,9.3c-0.2,0.2-0.4,0.5-0.6,0.8L212.3,25c-0.1-1.5-1.3-2.7-2.8-2.8L206.8,9
		C207.1,8.9,207.3,8.7,207.5,8.5z"/>
	<path class="st1" d="M176.3,6.4l13.1,0l13.1,0c0,0.3,0.1,0.6,0.2,0.9l-11.3,7.4c-0.5-0.5-1.2-0.8-2-0.8c-0.8,0-1.4,0.3-2,0.8
		l-11.3-7.4C176.2,7,176.3,6.7,176.3,6.4L176.3,6.4z"/>
	<g>
		<g>
			<polygon class="st2" points="172.2,3.7 188.3,3.7 204.4,3.7 215.7,15.1 227.1,26.4 227.1,42.5 227.1,58.6 215.7,69.9 204.4,81.3 
				188.3,81.3 172.2,81.3 160.8,69.9 149.5,58.6 149.5,42.5 149.5,26.4 160.8,15.1 			"/>
			<polygon class="st2" points="188.3,14.2 198.3,18.3 208.3,22.5 212.5,32.5 216.6,42.5 212.5,52.5 208.3,62.5 198.3,66.7 
				188.3,70.8 178.3,66.7 168.3,62.5 164.1,52.5 160,42.5 164.1,32.5 168.3,22.5 178.3,18.3 			"/>
			<polygon class="st2" points="160,42.5 149.5,26.4 168.3,22.5 172.2,3.7 188.3,14.2 204.4,3.7 208.3,22.5 227.1,26.4 216.4,42.1 
				227.1,58.6 208.3,62.5 204.4,81.3 188.3,70.8 172.2,81.3 168.3,62.5 149.5,58.6 			"/>
		</g>
		<g>
			<path class="st3" d="M149.5,29.4c1.6,0,2.9-1.3,2.9-2.9s-1.3-2.9-2.9-2.9c-1.6,0-2.9,1.3-2.9,2.9S147.9,29.4,149.5,29.4z"/>
			<path class="st3" d="M160,45.4c1.6,0,2.9-1.3,2.9-2.9c0-1.6-1.3-2.9-2.9-2.9c-1.6,0-2.9,1.3-2.9,2.9
				C157,44.1,158.3,45.4,160,45.4z"/>
			<path class="st3" d="M149.5,61.5c1.6,0,2.9-1.3,2.9-2.9c0-1.6-1.3-2.9-2.9-2.9c-1.6,0-2.9,1.3-2.9,2.9
				C146.6,60.2,147.9,61.5,149.5,61.5z"/>
			<path class="st3" d="M168.3,65.5c1.6,0,2.9-1.3,2.9-2.9s-1.3-2.9-2.9-2.9c-1.6,0-2.9,1.3-2.9,2.9S166.6,65.5,168.3,65.5z"/>
			<path class="st3" d="M172.2,84.2c1.6,0,2.9-1.3,2.9-2.9c0-1.6-1.3-2.9-2.9-2.9c-1.6,0-2.9,1.3-2.9,2.9
				C169.3,82.9,170.6,84.2,172.2,84.2z"/>
			<path class="st3" d="M188.3,73.7c1.6,0,2.9-1.3,2.9-2.9c0-1.6-1.3-2.9-2.9-2.9c-1.6,0-2.9,1.3-2.9,2.9
				C185.4,72.4,186.7,73.7,188.3,73.7z"/>
			<path class="st3" d="M204.4,84.2c1.6,0,2.9-1.3,2.9-2.9c0-1.6-1.3-2.9-2.9-2.9c-1.6,0-2.9,1.3-2.9,2.9
				C201.4,82.9,202.7,84.2,204.4,84.2z"/>
			<path class="st3" d="M208.3,65.5c1.6,0,2.9-1.3,2.9-2.9s-1.3-2.9-2.9-2.9c-1.6,0-2.9,1.3-2.9,2.9S206.7,65.5,208.3,65.5z"/>
			<path class="st3" d="M227.1,61.5c1.6,0,2.9-1.3,2.9-2.9c0-1.6-1.3-2.9-2.9-2.9c-1.6,0-2.9,1.3-2.9,2.9
				C224.2,60.2,225.5,61.5,227.1,61.5z"/>
			<path class="st3" d="M216.4,45c1.6,0,2.9-1.3,2.9-2.9c0-1.6-1.3-2.9-2.9-2.9c-1.6,0-2.9,1.3-2.9,2.9
				C213.5,43.7,214.8,45,216.4,45z"/>
			<path class="st3" d="M208.3,25.4c1.6,0,2.9-1.3,2.9-2.9c0-1.6-1.3-2.9-2.9-2.9c-1.6,0-2.9,1.3-2.9,2.9
				C205.4,24.1,206.7,25.4,208.3,25.4z"/>
			<path class="st3" d="M188.3,17.1c1.6,0,2.9-1.3,2.9-2.9c0-1.6-1.3-2.9-2.9-2.9c-1.6,0-2.9,1.3-2.9,2.9
				C185.4,15.8,186.7,17.1,188.3,17.1z"/>
			<path class="st3" d="M168.3,25.4c1.6,0,2.9-1.3,2.9-2.9c0-1.6-1.3-2.9-2.9-2.9c-1.6,0-2.9,1.3-2.9,2.9
				C165.3,24.1,166.6,25.4,168.3,25.4z"/>
			<path class="st3" d="M227.1,29.4c1.6,0,2.9-1.3,2.9-2.9c0-1.6-1.3-2.9-2.9-2.9c-1.6,0-2.9,1.3-2.9,2.9
				C224.2,28,225.5,29.4,227.1,29.4z"/>
			<path class="st3" d="M204.4,6.6c1.6,0,2.9-1.3,2.9-2.9c0-1.6-1.3-2.9-2.9-2.9c-1.6,0-2.9,1.3-2.9,2.9
				C201.4,5.3,202.7,6.6,204.4,6.6z"/>
			<path class="st3" d="M172.2,6.6c1.6,0,2.9-1.3,2.9-2.9s-1.3-2.9-2.9-2.9c-1.6,0-2.9,1.3-2.9,2.9S170.6,6.6,172.2,6.6z"/>
		</g>
	</g>
	<g>
		<path class="st4" d="M191.9,28.6v27.9h-5.6V37.3h-6.4v-3.6c1.9-0.1,3.3-0.2,4.3-0.6c1-0.3,1.8-0.9,2.3-1.7
			c0.6-0.8,0.9-1.7,0.9-2.9H191.9z"/>
	</g>
</g>
<g>
	<rect x="67.3" y="40.7" class="st1" width="17.5" height="5.3"/>
	<rect x="113.4" y="45.9" class="st1" width="17.5" height="5.3"/>
	<rect x="69.5" y="21.1" class="st1" width="5.3" height="24.9"/>
	
		<rect x="103.3" y="21.5" transform="matrix(0.5781 0.816 -0.816 0.5781 72.2466 -72.2455)" class="st1" width="5.3" height="24.4"/>
	
		<rect x="103.5" y="30.6" transform="matrix(0.5515 -0.8341 0.8341 0.5515 11.9091 107.7227)" class="st1" width="5.3" height="24.4"/>
	<rect x="42.5" y="45.9" class="st1" width="18.1" height="5.3"/>
	<rect x="0" y="40.8" class="st1" width="42.5" height="5.3"/>
	<rect x="0" y="51.6" class="st0" width="42.5" height="5.3"/>
	<rect x="63.8" y="50.6" class="st0" width="21" height="6.3"/>
	<g>
		<path class="st3" d="M118,71.5c2.4,0,4.3-1.9,4.3-4.3c0-2.4-1.9-4.3-4.3-4.3c-2.4,0-4.3,1.9-4.3,4.3
			C113.7,69.5,115.6,71.5,118,71.5z"/>
		<path class="st3" d="M126.6,71.5c2.4,0,4.3-1.9,4.3-4.3c0-2.4-1.9-4.3-4.3-4.3c-2.4,0-4.3,1.9-4.3,4.3
			C122.3,69.5,124.2,71.5,126.6,71.5z"/>
	</g>
	<path class="st3" d="M52.4,38.1c2.4,0,4.3-1.9,4.3-4.3c0-2.4-1.9-4.3-4.3-4.3c-2.4,0-4.3,1.9-4.3,4.3C48.1,36.1,50,38.1,52.4,38.1z
		"/>
	<g>
		<path class="st3" d="M79.1,29.5c2.4,0,4.3-1.9,4.3-4.3c0-2.4-1.9-4.3-4.3-4.3c-2.4,0-4.3,1.9-4.3,4.3
			C74.8,27.5,76.7,29.5,79.1,29.5z"/>
		<path class="st3" d="M87.7,29.5c2.4,0,4.3-1.9,4.3-4.3c0-2.4-1.9-4.3-4.3-4.3c-2.4,0-4.3,1.9-4.3,4.3
			C83.4,27.5,85.3,29.5,87.7,29.5z"/>
	</g>
	<g>
		<path class="st3" d="M18.1,29.5c2.4,0,4.3-1.9,4.3-4.3c0-2.4-1.9-4.3-4.3-4.3c-2.4,0-4.3,1.9-4.3,4.3
			C13.8,27.5,15.7,29.5,18.1,29.5z"/>
		<path class="st3" d="M26.7,29.5c2.4,0,4.3-1.9,4.3-4.3c0-2.4-1.9-4.3-4.3-4.3c-2.4,0-4.3,1.9-4.3,4.3
			C22.4,27.5,24.3,29.5,26.7,29.5z"/>
	</g>
	<polygon class="st0" points="84.8,38.6 84.8,51.3 105.5,51.3 	"/>
	<g>
		<polygon class="st4" points="113.3,56.9 80,56.9 80,51.2 103.8,51.2 84.7,38.6 111.1,19.9 114.4,24.5 94.8,38.4 114.9,51.7 		"/>
	</g>
	<g>
		<rect x="108.2" y="51.2" class="st4" width="22.7" height="5.7"/>
	</g>
	<g>
		<rect x="37.9" y="51.2" class="st4" width="22.7" height="5.7"/>
	</g>
	<g>
		<polygon class="st4" points="84.8,51.7 63.8,51.7 63.8,21.1 69.5,21.1 69.5,46 84.8,46 		"/>
	</g>
	<g>
		<rect x="0" y="46.1" class="st4" width="42.5" height="5.5"/>
	</g>
</g>
</svg>
